{
	"asset": {
		"generator": "Unity 2019.2.17f1",
		"extras": {
			"exporterVersion" : "2.1.1"
		},
		"version": "2.0"
	},
	"accessors": [
		{
			"bufferView": 2,
			"byteOffset": 0,
			"componentType": 5126,
			"count": 6640,
			"max": [ 46.11001, 1.8028, 19.24001 ],
			"min": [ -45.16001, 0.002798934, -21.09001 ],
			"type": "VEC3"
		},
		{
			"bufferView": 2,
			"byteOffset": 79680,
			"componentType": 5126,
			"count": 6640,
			"max": [ 1, 1, 1 ],
			"min": [ -1, -1, -1 ],
			"type": "VEC3"
		},
		{
			"bufferView": 1,
			"byteOffset": 0,
			"componentType": 5126,
			"count": 6640,
			"max": [ 0.3891749, 0.5067132 ],
			"min": [ 0.07301849, 0.1532975 ],
			"type": "VEC2"
		},
		{
			"bufferView": 1,
			"byteOffset": 53120,
			"componentType": 5126,
			"count": 6640,
			"max": [ 0.9980469, 0.9980469 ],
			"min": [ 0.001953125, 0.001953125 ],
			"type": "VEC2"
		},
		{
			"bufferView": 0,
			"byteOffset": 0,
			"componentType": 5123,
			"count": 9960,
			"max": [ 6639 ],
			"min": [ 0 ],
			"type": "SCALAR"
		},
		{
			"bufferView": 2,
			"byteOffset": 159360,
			"componentType": 5126,
			"count": 8,
			"max": [ 45.95, 0.02, 19.09 ],
			"min": [ -45, 0.01, -20.94 ],
			"type": "VEC3"
		},
		{
			"bufferView": 2,
			"byteOffset": 159456,
			"componentType": 5126,
			"count": 8,
			"max": [ 0, 1, 0 ],
			"min": [ 0, -1, 0 ],
			"type": "VEC3"
		},
		{
			"bufferView": 1,
			"byteOffset": 106240,
			"componentType": 5126,
			"count": 8,
			"max": [ 75.75417, 33.35833 ],
			"min": [ -75.82916, -33.35833 ],
			"type": "VEC2"
		},
		{
			"bufferView": 0,
			"byteOffset": 19920,
			"componentType": 5123,
			"count": 12,
			"max": [ 7 ],
			"min": [ 0 ],
			"type": "SCALAR"
		}
	],
	"buffers": [
		{
			"byteLength": 285800,
			"uri": "Unity2GLTF.bin"
		}
	],
	"bufferViews": [
		{
			"buffer": 0,
			"byteLength": 19944,
			"byteOffset": 265856,
			"target": 34963
		},
		{
			"buffer": 0,
			"byteLength": 106304,
			"byteOffset": 0,
			"byteStride": 8,
			"target": 34962
		},
		{
			"buffer": 0,
			"byteLength": 159552,
			"byteOffset": 106304,
			"byteStride": 12,
			"target": 34962
		}
	],
	"images": [
		{
			"uri": "Assets/9DA8A5D21226C97E3DB38F836BE97F6D.png"
		},
		{
			"uri": "Assets/82C1175B3DF70F9270C3E3FC36A3C88B.png"
		},
		{
			"uri": "Assets/OutsideFloor.png"
		}
	],
	"materials": [
		{
			"pbrMetallicRoughness": {
				"baseColorTexture" : {
					"index" : 0,
					"texCoord" : 0
				},
				"baseColorFactor": [0.7709368, 0.7709368, 0.7709368, 1],
				"metallicFactor": 0,
				"roughnessFactor": 0.6
			},
			"emissiveFactor": [0, 0, 0],
			"occlusionTexture" : {
				"index" : 1,
				"texCoord" : 1
			},
			"doubleSided": false,
			"name": "Material #25yi_wiqiang.bmp.bmp_jg_md (Instance)"
		},
		{
			"pbrMetallicRoughness": {
				"baseColorTexture" : {
					"index" : 2,
					"texCoord" : 0
				},
				"baseColorFactor": [1, 1, 1, 1],
				"metallicFactor": 0,
				"roughnessFactor": 0.6
			},
			"emissiveFactor": [0, 0, 0],
			"doubleSided": false,
			"name": "FloorMat (Instance) (Instance)"
		}
	],
	"meshes": [
		{
			"name": "mesh__-61718CombinePrefabWall",
			"primitives": [
				{
					"attributes": {
						"POSITION": 0,
						"NORMAL": 1,
						"TEXCOORD_0": 2,
						"TEXCOORD_1": 3
					},
					"indices": 4,
					"material": 0,
					"mode": 4
				}
			]
		},
		{
			"name": "mesh__-61730CombineFloor",
			"primitives": [
				{
					"attributes": {
						"POSITION": 5,
						"NORMAL": 6,
						"TEXCOORD_0": 7
					},
					"indices": 8,
					"material": 1,
					"mode": 4
				}
			]
		}
	],
	"nodes": [
		{
			"name": "UnityGlTF_correctionMatrix",
			"children": [
				1
			],
			"matrix": [-1, 0, -8.742278E-08, 0, 0, 1, 0, 0, 8.742278E-08, 0, -1, 0, 0, 0, 0, 1]
		},
		{
			"name": "node_World_-9320",
			"children": [
				2,
				3
			],
			"matrix": [1, 0, 0, 0, 0, 1, 0, 0, 0, 0, 1, 0, 0, 0, 0, 1]
		},
		{
			"name": "node_Buildings_-9326"
		},
		{
			"name": "node_FloorPlan_-9330",
			"children": [
				4,
				5,
				6,
				7,
				8,
				9,
				10,
				11,
				12,
				13,
				14,
				15,
				17,
				19,
				20,
				21,
				22,
				23,
				24,
				25,
				26,
				27
			]
		},
		{
			"name": "node_Placements_-9336"
		},
		{
			"name": "node_Routes_-9352"
		},
		{
			"name": "node_Text3Ds_-9356"
		},
		{
			"name": "node_WayPoints_-9360"
		},
		{
			"name": "node_HeatmapObjs_-9364"
		},
		{
			"name": "node_PosPoints_-9368"
		},
		{
			"name": "node_PipeLines_-9372"
		},
		{
			"name": "node_LeakWaterLines_-9376"
		},
		{
			"name": "node_lines_-9380"
		},
		{
			"name": "node_curveLines_-9384"
		},
		{
			"name": "node_arrowLines_-9388"
		},
		{
			"name": "node_CombineWall_-9392",
			"children": [
				16
			]
		},
		{
			"name": "node_CombinePrefabWall_-61712",
			"mesh": 0
		},
		{
			"name": "node_CombineFloor_-9396",
			"children": [
				18
			]
		},
		{
			"name": "node_CombineFloor_-61724",
			"mesh": 1
		},
		{
			"name": "node_CombineCeiling_-9400"
		},
		{
			"name": "node_CombineRoof_-9404"
		},
		{
			"name": "node_CombineDoorOrWin_-9408"
		},
		{
			"name": "node_CombinePlacement_-9412"
		},
		{
			"name": "node_DoorOrWins_-9416"
		},
		{
			"name": "node_ArrowDataLines_-9420"
		},
		{
			"name": "node_Polygon_-9424"
		},
		{
			"name": "node_CubePolygon_-9428"
		},
		{
			"name": "node_ColliderCube_-9432",
			"scale": [ 0, 0, 0]
		}
	],
	"samplers": [
		{
			"magFilter": 9729,
			"minFilter": 9985,
			"wrapS": 10497,
			"wrapT": 10497
		}
	],
	"scenes": [
		{
			"name":"defaultScene",
			"nodes": [
				0
			]
		}
	],
	"scene": 0,
	"textures": [
		{
			"sampler": 0,
			"source": 0
		},
		{
			"sampler": 0,
			"source": 1
		},
		{
			"sampler": 0,
			"source": 2
		}
	]
}